PathFileType	4	(X/Y/Z)	./resultDataOpenSim/trcMotMarkerGrf/sub09/qtm-04-07.trc
DataRate	CameraRate	NumFrames	NumMarkers	Units	OrigDataRate	OrigDataStartFrame	OrigNumFrames
250.000000	250.000000	14	24	m	250.000000	306	488
Frame#	Time	L.Toe.Tip			R.Toe.Tip			L.Ankle.Lat			R.Ankle.Lat			L.Ankle.Med			R.Ankle.Med			L.Heel			R.Heel			L.Knee.Lat			R.Knee.Lat			L.Knee.Med			R.Knee.Med			L.Thigh.Upper			R.Thigh.Upper			L.ASIS			R.ASIS			V.Sacral			L.Acromium			R.Acromium			C7			L.Elbow			R.Elbow			L.Wrist.Lat			R.Wrist.Lat
		X1	Y1	Z1	X2	Y2	Z2	X3	Y3	Z3	X4	Y4	Z4	X5	Y5	Z5	X6	Y6	Z6	X7	Y7	Z7	X8	Y8	Z8	X9	Y9	Z9	X10	Y10	Z10	X11	Y11	Z11	X12	Y12	Z12	X13	Y13	Z13	X14	Y14	Z14	X15	Y15	Z15	X16	Y16	Z16	X17	Y17	Z17	X18	Y18	Z18	X19	Y19	Z19	X20	Y20	Z20	X21	Y21	Z21	X22	Y22	Z22	X23	Y23	Z23	X24	Y24	Z24

306	1.22	0.15493069	-0.034039957	-0.029857666	1.017593	0.063726104	0.095574198	0.048883706	0.073276818	-0.088332198	0.87022023	0.056963874	0.12831978	0.076897103	0.07945999	0.0056868775	0.87333594	0.094053973	0.035506109	-0.026158986	0.079521604	-0.045538907	0.80653546	0.026628712	0.079335207	0.29075132	0.41888155	-0.12618205	0.78144996	0.50707432	0.16389444	0.30067079	0.40912655	-0.0022467419	0.76638797	0.48003432	0.040746113	0.44875601	0.80021348	-0.15227352	0.52287555	0.80911627	0.21641209	0.56350282	0.86908463	-0.11238162	0.58805305	0.88874798	0.12851253	0.41062005	0.9416139	0.026173442	0.59497783	1.3357472	-0.13233412	0.56796108	1.332522	0.1961883	0.51699344	1.3869226	0.029592246	0.50153643	0.96671871	-0.2028831	0.39896166	1.0129345	0.26548732	0.75546075	0.87373118	-0.15882767	0.48349616	0.76135622	0.32233427
307	1.224	0.15546019	-0.033952769	-0.030272946	1.0193529	0.060187875	0.09646026	0.052155864	0.075684087	-0.090323745	0.87192987	0.056559361	0.12890877	0.080225902	0.081444312	0.0034923595	0.87567248	0.093916952	0.036169077	-0.022690528	0.083293136	-0.047641633	0.80755697	0.027471872	0.079713391	0.29780174	0.41884625	-0.12671508	0.78967831	0.50828347	0.16450448	0.30800584	0.40858776	-0.0029081646	0.77308218	0.4819574	0.040887245	0.45652628	0.79922218	-0.15209839	0.52938315	0.81015702	0.21703771	0.57107101	0.86824401	-0.11156556	0.59494643	0.88926596	0.12941067	0.41968249	0.94100904	0.026569878	0.60182014	1.3356387	-0.13192155	0.57471274	1.3324307	0.19677689	0.52371415	1.386811	0.030092356	0.50742356	0.96683161	-0.20261771	0.40620349	1.01231	0.26581998	0.76088178	0.87268627	-0.15846776	0.49209829	0.7609543	0.32255682
308	1.228	0.15592377	-0.03388674	-0.030718856	1.0209728	0.056282603	0.097012005	0.055566403	0.078143137	-0.092346832	0.87332329	0.056097488	0.12939336	0.083695277	0.083479014	0.0013366436	0.87784237	0.093683394	0.036738156	-0.018985556	0.087212926	-0.049662121	0.80842238	0.02825239	0.080009798	0.30531157	0.41874567	-0.1273416	0.79750139	0.50933983	0.1650455	0.31569968	0.40797257	-0.0036284475	0.77981804	0.48380688	0.041150111	0.46425144	0.7982853	-0.15190206	0.53577152	0.81131193	0.21769248	0.57862292	0.86749822	-0.11069263	0.60186934	0.88987733	0.13032978	0.42814504	0.94071986	0.027210529	0.60868624	1.3356078	-0.13150031	0.58141902	1.3324172	0.19734438	0.53039477	1.3867468	0.03058303	0.51329276	0.96708676	-0.20236956	0.41338664	1.0117505	0.2661257	0.76621937	0.87158198	-0.15812923	0.50077694	0.76061931	0.32277468
309	1.232	0.15632805	-0.033819052	-0.031196258	1.0225194	0.052348676	0.097173167	0.059079077	0.080655195	-0.094372782	0.87457983	0.05554674	0.12971737	0.087363438	0.085572965	-0.00078697966	0.87980764	0.093348007	0.037158674	-0.015021815	0.091295193	-0.051558768	0.80921637	0.028965416	0.080286986	0.31323427	0.41857881	-0.12803969	0.80477253	0.51016642	0.16549882	0.32366749	0.40723564	-0.004286018	0.78676839	0.48554029	0.04167776	0.47193315	0.79743036	-0.1516829	0.54210007	0.81253452	0.21839235	0.58619268	0.86687555	-0.10973681	0.60882792	0.89056497	0.13124565	0.43608922	0.94063617	0.027524229	0.61557372	1.335664	-0.13106767	0.58807233	1.3324905	0.19788818	0.53703936	1.3867426	0.031058976	0.51915167	0.96744781	-0.20207261	0.42052372	1.0112779	0.26643443	0.77147757	0.87041952	-0.15779879	0.50952752	0.7603624	0.32297816
310	1.236	0.15673857	-0.033712077	-0.031691593	1.0240776	0.048818518	0.096939177	0.0626742	0.083207993	-0.09634805	0.87589608	0.05494383	0.12981003	0.091303856	0.087732237	-0.0028551498	0.88159708	0.09293322	0.037337906	-0.01078327	0.095527541	-0.053279127	0.80999754	0.029611912	0.080529071	0.32139557	0.41832044	-0.12873117	0.81150316	0.5107016	0.1659053	0.33182442	0.4063535	-0.0048474751	0.79380465	0.48709053	0.042408336	0.47958376	0.79665858	-0.15142004	0.54843908	0.81379593	0.21913056	0.5937631	0.86636838	-0.10870991	0.6158059	0.89130966	0.13213741	0.44363126	0.94063976	0.02762691	0.62247686	1.3358058	-0.13062214	0.59466711	1.3326493	0.19840653	0.54364836	1.3868186	0.031508689	0.52499064	0.9679109	-0.20173909	0.42773271	1.0108741	0.26675996	0.77665703	0.86920275	-0.15747723	0.51833812	0.7601835	0.32315931
311	1.24	0.15725434	-0.033516717	-0.032182203	1.0256421	0.046052549	0.096363196	0.066385957	0.08581405	-0.098217282	0.87736303	0.054367482	0.12963714	0.095545472	0.089949317	-0.0048208669	0.88321064	0.092450932	0.037208993	-0.0062649153	0.099884151	-0.0547812	0.81076983	0.030172266	0.080657729	0.32973979	0.41794128	-0.12939915	0.8177454	0.51090659	0.16633606	0.34011724	0.40530751	-0.00537185	0.80063062	0.48835604	0.043154011	0.48720797	0.795972	-0.15109956	0.55484548	0.81507926	0.21987977	0.60127698	0.86593851	-0.10765311	0.62277059	0.8921029	0.13298251	0.45098115	0.94066504	0.027921982	0.62939114	1.3360235	-0.13016301	0.60119667	1.3328845	0.19890022	0.55022051	1.3869834	0.031924897	0.53079528	0.96851499	-0.20145194	0.43519241	1.0104895	0.26711996	0.78175542	0.86793894	-0.15718268	0.52718989	0.7600716	0.3233129
312	1.244	0.15795254	-0.03318259	-0.032653477	1.0270722	0.044181641	0.095563439	0.070282526	0.088510315	-0.099949414	0.87889089	0.053903033	0.12924546	0.10008315	0.092214284	-0.0066606655	0.88458526	0.091913274	0.036804271	-0.0014712732	0.10436118	-0.056052533	0.81149008	0.030617204	0.080622582	0.33836048	0.41743021	-0.1301016	0.8234902	0.51079357	0.16683574	0.34857164	0.40408892	-0.0059415002	0.80705926	0.48926951	0.043768808	0.49480236	0.79538279	-0.15072323	0.56134716	0.81637281	0.22060844	0.60870554	0.86556689	-0.10658225	0.62968188	0.89295375	0.13375908	0.4581988	0.94075979	0.028411474	0.63631465	1.3363121	-0.12968974	0.60765407	1.3331913	0.19937148	0.55676087	1.3872252	0.032311281	0.53657321	0.96927694	-0.20124372	0.44293315	1.0100937	0.26750948	0.78677231	0.86663381	-0.15692943	0.53606513	0.76001926	0.32343703
313	1.248	0.15885842	-0.032669154	-0.033107024	1.0281947	0.043065629	0.094698272	0.074431803	0.091338304	-0.10153815	0.88025578	0.053613699	0.12875547	0.1049024	0.094543448	-0.0083831006	0.88564959	0.091360325	0.036256973	0.0035951625	0.10899524	-0.057111726	0.81210111	0.030936382	0.080480943	0.34734175	0.41679335	-0.13088468	0.82870862	0.51044517	0.16739282	0.35728203	0.40270716	-0.0066113818	0.8131255	0.48984642	0.044212083	0.5023644	0.79489795	-0.1502889	0.56794036	0.81766377	0.22130224	0.61605694	0.86528445	-0.10548362	0.63650196	0.8938778	0.13445872	0.46510281	0.94102632	0.028709078	0.64324262	1.3366744	-0.12920352	0.61403785	1.3335741	0.19982196	0.56328088	1.3875315	0.032677365	0.54235518	0.97015237	-0.20103763	0.45075534	1.0097059	0.26786919	0.79170773	0.86528864	-0.15671532	0.54495442	0.76003184	0.32353221
314	1.252	0.15995981	-0.031944349	-0.033554047	1.0289668	0.042411511	0.093906064	0.07888691	0.094338158	-0.10298847	0.88124784	0.05351038	0.12829609	0.10997375	0.096987336	-0.0099871261	0.88639185	0.090853723	0.035719592	0.0089460485	0.11384324	-0.057991172	0.81256821	0.031149145	0.080360185	0.35667775	0.41604007	-0.13174453	0.83352435	0.50997669	0.16795409	0.36633589	0.40117699	-0.0073998976	0.81898487	0.49016636	0.044495993	0.50989428	0.79451343	-0.14977096	0.5745953	0.81893562	0.22197314	0.6233203	0.86514141	-0.10436135	0.64320557	0.89487612	0.13509851	0.47146665	0.94152244	0.02849998	0.65016343	1.3371153	-0.12871014	0.62035559	1.3340377	0.20025469	0.56978725	1.3879068	0.033027171	0.54816743	0.97108206	-0.20073933	0.45842183	1.0093686	0.26812856	0.79656093	0.86390467	-0.15653062	0.55385629	0.76012217	0.32359802
315	1.256	0.16123076	-0.030970253	-0.0340083	1.0295004	0.041954588	0.09326411	0.083669019	0.097550702	-0.10431049	0.88178567	0.053540855	0.12794107	0.11525511	0.099602183	-0.011438355	0.88686851	0.090439504	0.035282362	0.014604164	0.11894829	-0.058719277	0.81290081	0.031287688	0.08033225	0.36633958	0.41518115	-0.13267557	0.83825807	0.50947551	0.1684713	0.37578622	0.39951329	-0.0083099204	0.82477836	0.49033591	0.044642552	0.51738715	0.7942261	-0.1491075	0.58126906	0.82017162	0.22264877	0.63045738	0.86515687	-0.10324974	0.64978375	0.89592569	0.13571785	0.47734954	0.94222483	0.027893801	0.65705993	1.3376357	-0.12821942	0.62662173	1.3345791	0.20067468	0.57627442	1.3883666	0.033357046	0.55401255	0.97204953	-0.20033697	0.46585979	1.0091079	0.26827253	0.80133366	0.86248627	-0.15636765	0.56277486	0.76030158	0.32363322
316	1.26	0.16264524	-0.029706385	-0.034484105	1.0299344	0.041565878	0.092800743	0.08875257	0.10101426	-0.10550365	0.88192606	0.053622062	0.1277001	0.12071406	0.1024223	-0.012697094	0.88717043	0.090128417	0.034958254	0.020587122	0.12432159	-0.059321985	0.81314534	0.031375908	0.080353473	0.37635136	0.41423808	-0.13370151	0.84318887	0.50898962	0.16894633	0.3857025	0.39774736	-0.0093592607	0.83056516	0.49045749	0.044682051	0.52483021	0.79404077	-0.14820851	0.58792011	0.82136169	0.22335379	0.63745297	0.86531526	-0.10218713	0.65624044	0.89699144	0.13635868	0.48318588	0.9430521	0.02739491	0.66391525	1.3382339	-0.12773922	0.63285175	1.3351909	0.20108519	0.58273037	1.3889208	0.033664108	0.55987613	0.97307571	-0.19988613	0.47314676	1.0089272	0.26834132	0.80602911	0.8610397	-0.15622167	0.57171612	0.76057583	0.32363752
317	1.264	0.16419413	-0.028161435	-0.034992349	1.0303309	0.041231605	0.092517312	0.094094803	0.10474907	-0.10654104	0.88184659	0.053676021	0.1275343	0.12633858	0.10546069	-0.013751732	0.88739685	0.089911138	0.034717304	0.026895724	0.12994459	-0.059835307	0.81335081	0.031431187	0.080339031	0.3867467	0.41324142	-0.13482681	0.84835155	0.50855352	0.1694182	0.3961839	0.39593252	-0.010573126	0.83631722	0.49059978	0.044649176	0.53221594	0.7939594	-0.14703221	0.59451322	0.82250679	0.22409853	0.64435064	0.86560274	-0.10118888	0.66258407	0.89804543	0.13704507	0.48939906	0.94392918	0.027437778	0.67072069	1.3389086	-0.12727091	0.63905554	1.3358692	0.20148469	0.58914649	1.3895667	0.033951498	0.56574149	0.97418051	-0.19944214	0.48036782	1.008824	0.26837509	0.81064685	0.85957047	-0.15609223	0.58067801	0.76094388	0.32360736
318	1.268	0.16590027	-0.026426254	-0.035532094	1.0306838	0.040967783	0.092374235	0.099692802	0.1087368	-0.10739546	0.88180553	0.053641824	0.12737569	0.13213918	0.10871486	-0.014614209	0.88763341	0.089776574	0.03452383	0.03351664	0.13578145	-0.060304445	0.81353623	0.031472955	0.080261384	0.39747861	0.41221626	-0.13598633	0.85360854	0.50820486	0.16989872	0.40724046	0.39413475	-0.011920228	0.8419527	0.4907836	0.044576897	0.53955674	0.79397331	-0.14566722	0.60101703	0.8236165	0.22487782	0.65121545	0.86602772	-0.10021648	0.66881833	0.89907572	0.13777912	0.49602933	0.94483736	0.028013808	0.67748049	1.3396599	-0.12681841	0.6452332	1.3366164	0.20186592	0.59551995	1.3902951	0.034222995	0.57159768	0.97536728	-0.19902937	0.48754458	1.0087968	0.26838345	0.81518477	0.85808271	-0.15598654	0.58963932	0.76139969	0.32353107
319	1.272	0.16780624	-0.024596908	-0.036085217	1.0309724	0.040769522	0.092275426	0.10559119	0.11291868	-0.10806981	0.88198601	0.053497276	0.12718488	0.13815021	0.11216811	-0.015292121	0.88791613	0.089710495	0.034356025	0.040437068	0.14179322	-0.060765334	0.81368899	0.031513926	0.080159179	0.40845487	0.41117527	-0.13707748	0.85879185	0.50798353	0.17032952	0.41864022	0.3924236	-0.013257142	0.84736889	0.49099292	0.044497893	0.5468697	0.79407972	-0.14430302	0.60740516	0.82470298	0.2256758	0.65799217	0.86662818	-0.099160421	0.67494284	0.90008474	0.13855294	0.50283585	0.94580251	0.028803641	0.68421304	1.3404864	-0.12640661	0.65137799	1.337438	0.20221883	0.60184855	1.3911041	0.034474996	0.57744174	0.97663316	-0.1986498	0.49468204	1.00884	0.26836812	0.81964569	0.85658119	-0.15591739	0.59856272	0.76193776	0.32339324
